# xmcd
#
# Track frame offsets: 
#        150
#        21138
#        40183
#        60320
#        80922
#        100940
#        125433
#        149912
#        166242
#        192586
#        216473
#
# Disc length: 3249 seconds
#
# Revision: 0
# Processed by: cddbd v1.5.2PL0 Copyright (c) Steve Scherf et al.
# Submitted via: ExactAudioCopy v0.95b3
#
DISCID=a50caf0b
DTITLE=Cathi Walkup - Living In A Daydream
DYEAR=1999
DGENRE=Blues/Torch
TTITLE0=Litle Suzie's Humming
TTITLE1=Nice Work if You Can Get It
TTITLE2=Angel Eyes
TTITLE3=Living in a Daydream
TTITLE4=More Than Poor Clay
TTITLE5=A Kiss to Build a Dream On
TTITLE6=Cheek to Cheek
TTITLE7=I Mean That
TTITLE8=Reflections
TTITLE9=Waffles and Hen
TTITLE10=Favela
EXTD=
EXTT0=
EXTT1=
EXTT2=
EXTT3=
EXTT4=
EXTT5=
EXTT6=
EXTT7=
EXTT8=
EXTT9=
EXTT10=
PLAYORDER=
